<svg width="40" height="40" viewBox="0 0 40 40" fill="none" xmlns="http://www.w3.org/2000/svg">
<path d="M21.667 33.3346L33.3337 21.668M21.667 33.3346V23.3346C21.667 22.8926 21.8426 22.4687 22.1551 22.1561C22.4677 21.8436 22.8916 21.668 23.3337 21.668H33.3337M21.667 33.3346H10.0003C9.11627 33.3346 8.26842 32.9834 7.6433 32.3583C7.01818 31.7332 6.66699 30.8854 6.66699 30.0013V10.0013C6.66699 9.11725 7.01818 8.2694 7.6433 7.64428C8.26842 7.01916 9.11627 6.66797 10.0003 6.66797H30.0003C30.8844 6.66797 31.7322 7.01916 32.3573 7.64428C32.9825 8.2694 33.3337 9.11725 33.3337 10.0013V21.668" stroke="url(#paint0_linear_755_331)" stroke-width="3.33333" stroke-linecap="round" stroke-linejoin="round"/>
<defs>
<linearGradient id="paint0_linear_755_331" x1="15" y1="15" x2="27.5" y2="22" gradientUnits="userSpaceOnUse">
<stop stop-color="#D97706"/>
<stop offset="1" stop-color="#FACC15"/>
</linearGradient>
</defs>
</svg>
